<?xml version="1.0" encoding="UTF-8" standalone="no"?>
<!DOCTYPE svg PUBLIC "-//W3C//DTD SVG 1.1//EN"
 "http://www.w3.org/Graphics/SVG/1.1/DTD/svg11.dtd">
<!-- Generated by graphviz version 2.40.1 (20161225.0304)
 -->
<!-- Title: %3 Pages: 1 -->
<svg width="705pt" height="476pt"
 viewBox="0.00 0.00 705.29 476.00" xmlns="http://www.w3.org/2000/svg" xmlns:xlink="http://www.w3.org/1999/xlink">
<g id="graph0" class="graph" transform="scale(1 1) rotate(0) translate(4 472)">
<title>%3</title>
<polygon fill="#ffffff" stroke="transparent" points="-4,4 -4,-472 701.2884,-472 701.2884,4 -4,4"/>
<!-- [root] azurerm_public_ip.myip -->
<g id="node1" class="node">
<title>[root] azurerm_public_ip.myip</title>
<polygon fill="none" stroke="#000000" points="174.3939,-324 20.3587,-324 20.3587,-288 174.3939,-288 174.3939,-324"/>
<text text-anchor="middle" x="97.3763" y="-301.8" font-family="Times,serif" font-size="14.00" fill="#000000">azurerm_public_ip.myip</text>
</g>
<!-- [root] azurerm_resource_group.thegroup -->
<g id="node2" class="node">
<title>[root] azurerm_resource_group.thegroup</title>
<polygon fill="none" stroke="#000000" points="339.0737,-180 129.6789,-180 129.6789,-144 339.0737,-144 339.0737,-180"/>
<text text-anchor="middle" x="234.3763" y="-157.8" font-family="Times,serif" font-size="14.00" fill="#000000">azurerm_resource_group.thegroup</text>
</g>
<!-- [root] azurerm_public_ip.myip&#45;&gt;[root] azurerm_resource_group.thegroup -->
<g id="edge1" class="edge">
<title>[root] azurerm_public_ip.myip&#45;&gt;[root] azurerm_resource_group.thegroup</title>
<path fill="none" stroke="#000000" d="M93.6468,-287.9042C90.6767,-268.2713 89.1968,-236.935 104.3763,-216 114.3899,-202.1896 128.6075,-191.8958 143.9922,-184.2275"/>
<polygon fill="#000000" stroke="#000000" points="145.5401,-187.3681 153.1623,-180.0092 142.6147,-181.0087 145.5401,-187.3681"/>
</g>
<!-- [root] provider.azurerm -->
<g id="node5" class="node">
<title>[root] provider.azurerm</title>
<polygon fill="none" stroke="#000000" points="281.3763,-108 181.2401,-90 281.3763,-72 381.5126,-90 281.3763,-108"/>
<text text-anchor="middle" x="281.3763" y="-85.8" font-family="Times,serif" font-size="14.00" fill="#000000">provider.azurerm</text>
</g>
<!-- [root] azurerm_resource_group.thegroup&#45;&gt;[root] provider.azurerm -->
<g id="edge2" class="edge">
<title>[root] azurerm_resource_group.thegroup&#45;&gt;[root] provider.azurerm</title>
<path fill="none" stroke="#000000" d="M246.2364,-143.8314C251.9242,-135.1181 258.8291,-124.5404 265.0075,-115.0756"/>
<polygon fill="#000000" stroke="#000000" points="268.1097,-116.7263 270.6451,-106.4393 262.248,-112.8999 268.1097,-116.7263"/>
</g>
<!-- [root] var.location -->
<g id="node6" class="node">
<title>[root] var.location</title>
<ellipse fill="none" stroke="#000000" cx="473.3763" cy="-90" rx="73.9171" ry="18"/>
<text text-anchor="middle" x="473.3763" y="-85.8" font-family="Times,serif" font-size="14.00" fill="#000000">[root] var.location</text>
</g>
<!-- [root] azurerm_resource_group.thegroup&#45;&gt;[root] var.location -->
<g id="edge3" class="edge">
<title>[root] azurerm_resource_group.thegroup&#45;&gt;[root] var.location</title>
<path fill="none" stroke="#000000" d="M294.3776,-143.9243C331.9493,-132.6056 380.0561,-118.1132 416.9343,-107.0035"/>
<polygon fill="#000000" stroke="#000000" points="417.9709,-110.3466 426.5362,-104.1108 415.9517,-103.6442 417.9709,-110.3466"/>
</g>
<!-- [root] var.rg -->
<g id="node7" class="node">
<title>[root] var.rg</title>
<ellipse fill="none" stroke="#000000" cx="110.3763" cy="-90" rx="52.8672" ry="18"/>
<text text-anchor="middle" x="110.3763" y="-85.8" font-family="Times,serif" font-size="14.00" fill="#000000">[root] var.rg</text>
</g>
<!-- [root] azurerm_resource_group.thegroup&#45;&gt;[root] var.rg -->
<g id="edge4" class="edge">
<title>[root] azurerm_resource_group.thegroup&#45;&gt;[root] var.rg</title>
<path fill="none" stroke="#000000" d="M203.0859,-143.8314C185.8567,-133.8273 164.3947,-121.3655 146.4607,-110.9522"/>
<polygon fill="#000000" stroke="#000000" points="147.8504,-107.7119 137.445,-105.7173 144.3354,-113.7655 147.8504,-107.7119"/>
</g>
<!-- [root] azurerm_subnet.mysubnet -->
<g id="node3" class="node">
<title>[root] azurerm_subnet.mysubnet</title>
<polygon fill="none" stroke="#000000" points="356.2253,-324 192.5273,-324 192.5273,-288 356.2253,-288 356.2253,-324"/>
<text text-anchor="middle" x="274.3763" y="-301.8" font-family="Times,serif" font-size="14.00" fill="#000000">azurerm_subnet.mysubnet</text>
</g>
<!-- [root] azurerm_virtual_network.mynet -->
<g id="node4" class="node">
<title>[root] azurerm_virtual_network.mynet</title>
<polygon fill="none" stroke="#000000" points="309.646,-252 113.1066,-252 113.1066,-216 309.646,-216 309.646,-252"/>
<text text-anchor="middle" x="211.3763" y="-229.8" font-family="Times,serif" font-size="14.00" fill="#000000">azurerm_virtual_network.mynet</text>
</g>
<!-- [root] azurerm_subnet.mysubnet&#45;&gt;[root] azurerm_virtual_network.mynet -->
<g id="edge5" class="edge">
<title>[root] azurerm_subnet.mysubnet&#45;&gt;[root] azurerm_virtual_network.mynet</title>
<path fill="none" stroke="#000000" d="M258.4787,-287.8314C251.1486,-279.454 242.3103,-269.3531 234.2794,-260.1749"/>
<polygon fill="#000000" stroke="#000000" points="236.707,-257.6343 227.4879,-252.4133 231.439,-262.2438 236.707,-257.6343"/>
</g>
<!-- [root] azurerm_virtual_network.mynet&#45;&gt;[root] azurerm_resource_group.thegroup -->
<g id="edge6" class="edge">
<title>[root] azurerm_virtual_network.mynet&#45;&gt;[root] azurerm_resource_group.thegroup</title>
<path fill="none" stroke="#000000" d="M217.1802,-215.8314C219.6671,-208.0463 222.6294,-198.7729 225.3888,-190.1347"/>
<polygon fill="#000000" stroke="#000000" points="228.7853,-191.0041 228.4943,-180.4133 222.1172,-188.874 228.7853,-191.0041"/>
</g>
<!-- [root] var.appid -->
<g id="node12" class="node">
<title>[root] var.appid</title>
<ellipse fill="none" stroke="#000000" cx="611.3763" cy="-18" rx="65.239" ry="18"/>
<text text-anchor="middle" x="611.3763" y="-13.8" font-family="Times,serif" font-size="14.00" fill="#000000">[root] var.appid</text>
</g>
<!-- [root] provider.azurerm&#45;&gt;[root] var.appid -->
<g id="edge16" class="edge">
<title>[root] provider.azurerm&#45;&gt;[root] var.appid</title>
<path fill="none" stroke="#000000" d="M326.9149,-80.0643C384.9013,-67.4127 485.3139,-45.5045 550.0104,-31.3889"/>
<polygon fill="#000000" stroke="#000000" points="551.0512,-34.7443 560.0752,-29.193 549.5589,-27.9052 551.0512,-34.7443"/>
</g>
<!-- [root] var.password -->
<g id="node14" class="node">
<title>[root] var.password</title>
<ellipse fill="none" stroke="#000000" cx="281.3763" cy="-18" rx="78.7539" ry="18"/>
<text text-anchor="middle" x="281.3763" y="-13.8" font-family="Times,serif" font-size="14.00" fill="#000000">[root] var.password</text>
</g>
<!-- [root] provider.azurerm&#45;&gt;[root] var.password -->
<g id="edge17" class="edge">
<title>[root] provider.azurerm&#45;&gt;[root] var.password</title>
<path fill="none" stroke="#000000" d="M281.3763,-71.8314C281.3763,-64.131 281.3763,-54.9743 281.3763,-46.4166"/>
<polygon fill="#000000" stroke="#000000" points="284.8764,-46.4132 281.3763,-36.4133 277.8764,-46.4133 284.8764,-46.4132"/>
</g>
<!-- [root] var.sub_id -->
<g id="node15" class="node">
<title>[root] var.sub_id</title>
<ellipse fill="none" stroke="#000000" cx="447.3763" cy="-18" rx="69.1151" ry="18"/>
<text text-anchor="middle" x="447.3763" y="-13.8" font-family="Times,serif" font-size="14.00" fill="#000000">[root] var.sub_id</text>
</g>
<!-- [root] provider.azurerm&#45;&gt;[root] var.sub_id -->
<g id="edge18" class="edge">
<title>[root] provider.azurerm&#45;&gt;[root] var.sub_id</title>
<path fill="none" stroke="#000000" d="M311.0538,-77.1278C336.357,-66.153 373.1259,-50.205 402.1024,-37.6369"/>
<polygon fill="#000000" stroke="#000000" points="403.8211,-40.7065 411.6026,-33.5163 401.0357,-34.2846 403.8211,-40.7065"/>
</g>
<!-- [root] var.tenant -->
<g id="node16" class="node">
<title>[root] var.tenant</title>
<ellipse fill="none" stroke="#000000" cx="117.3763" cy="-18" rx="67.1597" ry="18"/>
<text text-anchor="middle" x="117.3763" y="-13.8" font-family="Times,serif" font-size="14.00" fill="#000000">[root] var.tenant</text>
</g>
<!-- [root] provider.azurerm&#45;&gt;[root] var.tenant -->
<g id="edge19" class="edge">
<title>[root] provider.azurerm&#45;&gt;[root] var.tenant</title>
<path fill="none" stroke="#000000" d="M252.0564,-77.1278C226.9753,-66.1166 190.4914,-50.0993 161.8206,-37.5121"/>
<polygon fill="#000000" stroke="#000000" points="162.9882,-34.2023 152.4248,-33.3871 160.1743,-40.6119 162.9882,-34.2023"/>
</g>
<!-- [root] meta.count&#45;boundary (count boundary fixup) -->
<g id="node8" class="node">
<title>[root] meta.count&#45;boundary (count boundary fixup)</title>
<ellipse fill="none" stroke="#000000" cx="448.3763" cy="-378" rx="191.6931" ry="18"/>
<text text-anchor="middle" x="448.3763" y="-373.8" font-family="Times,serif" font-size="14.00" fill="#000000">[root] meta.count&#45;boundary (count boundary fixup)</text>
</g>
<!-- [root] meta.count&#45;boundary (count boundary fixup)&#45;&gt;[root] azurerm_public_ip.myip -->
<g id="edge7" class="edge">
<title>[root] meta.count&#45;boundary (count boundary fixup)&#45;&gt;[root] azurerm_public_ip.myip</title>
<path fill="none" stroke="#000000" d="M367.4603,-361.6272C317.431,-351.4768 251.6186,-338.0757 184.6194,-324.2522"/>
<polygon fill="#000000" stroke="#000000" points="185.2286,-320.8042 174.7274,-322.2099 183.8132,-327.6597 185.2286,-320.8042"/>
</g>
<!-- [root] meta.count&#45;boundary (count boundary fixup)&#45;&gt;[root] azurerm_subnet.mysubnet -->
<g id="edge8" class="edge">
<title>[root] meta.count&#45;boundary (count boundary fixup)&#45;&gt;[root] azurerm_subnet.mysubnet</title>
<path fill="none" stroke="#000000" d="M405.8111,-360.3868C382.1697,-350.6042 352.5442,-338.3453 327.407,-327.9437"/>
<polygon fill="#000000" stroke="#000000" points="328.593,-324.6467 318.0146,-324.0572 325.9165,-331.1148 328.593,-324.6467"/>
</g>
<!-- [root] output.ResourceGroupName -->
<g id="node9" class="node">
<title>[root] output.ResourceGroupName</title>
<ellipse fill="none" stroke="#000000" cx="461.3763" cy="-234" rx="133.7617" ry="18"/>
<text text-anchor="middle" x="461.3763" y="-229.8" font-family="Times,serif" font-size="14.00" fill="#000000">[root] output.ResourceGroupName</text>
</g>
<!-- [root] meta.count&#45;boundary (count boundary fixup)&#45;&gt;[root] output.ResourceGroupName -->
<g id="edge9" class="edge">
<title>[root] meta.count&#45;boundary (count boundary fixup)&#45;&gt;[root] output.ResourceGroupName</title>
<path fill="none" stroke="#000000" d="M450.0228,-359.7623C452.2401,-335.201 456.2081,-291.2474 458.8166,-262.3541"/>
<polygon fill="#000000" stroke="#000000" points="462.3298,-262.3638 459.7432,-252.0896 455.3582,-261.7344 462.3298,-262.3638"/>
</g>
<!-- [root] output.appid -->
<g id="node10" class="node">
<title>[root] output.appid</title>
<ellipse fill="none" stroke="#000000" cx="620.3763" cy="-162" rx="76.8244" ry="18"/>
<text text-anchor="middle" x="620.3763" y="-157.8" font-family="Times,serif" font-size="14.00" fill="#000000">[root] output.appid</text>
</g>
<!-- [root] meta.count&#45;boundary (count boundary fixup)&#45;&gt;[root] output.appid -->
<g id="edge10" class="edge">
<title>[root] meta.count&#45;boundary (count boundary fixup)&#45;&gt;[root] output.appid</title>
<path fill="none" stroke="#000000" d="M535.454,-361.9035C557.2421,-353.9017 578.5906,-341.9249 593.3763,-324 624.6992,-286.0268 626.0544,-225.5949 623.6158,-190.2653"/>
<polygon fill="#000000" stroke="#000000" points="627.0917,-189.8311 622.7661,-180.1595 620.1163,-190.4176 627.0917,-189.8311"/>
</g>
<!-- [root] var.yo -->
<g id="node11" class="node">
<title>[root] var.yo</title>
<ellipse fill="none" stroke="#000000" cx="530.3763" cy="-306" rx="54.1317" ry="18"/>
<text text-anchor="middle" x="530.3763" y="-301.8" font-family="Times,serif" font-size="14.00" fill="#000000">[root] var.yo</text>
</g>
<!-- [root] meta.count&#45;boundary (count boundary fixup)&#45;&gt;[root] var.yo -->
<g id="edge11" class="edge">
<title>[root] meta.count&#45;boundary (count boundary fixup)&#45;&gt;[root] var.yo</title>
<path fill="none" stroke="#000000" d="M469.0684,-359.8314C479.4529,-350.7132 492.1627,-339.5534 503.3121,-329.7637"/>
<polygon fill="#000000" stroke="#000000" points="505.894,-332.1544 511.0991,-322.9263 501.2754,-326.8943 505.894,-332.1544"/>
</g>
<!-- [root] output.ResourceGroupName&#45;&gt;[root] azurerm_resource_group.thegroup -->
<g id="edge12" class="edge">
<title>[root] output.ResourceGroupName&#45;&gt;[root] azurerm_resource_group.thegroup</title>
<path fill="none" stroke="#000000" d="M409.0129,-217.3913C376.9559,-207.2235 335.6244,-194.1139 301.2186,-183.2011"/>
<polygon fill="#000000" stroke="#000000" points="301.838,-179.7258 291.2478,-180.0385 299.7216,-186.3982 301.838,-179.7258"/>
</g>
<!-- [root] output.appid&#45;&gt;[root] var.appid -->
<g id="edge13" class="edge">
<title>[root] output.appid&#45;&gt;[root] var.appid</title>
<path fill="none" stroke="#000000" d="M619.2365,-143.7623C617.7014,-119.201 614.9543,-75.2474 613.1484,-46.3541"/>
<polygon fill="#000000" stroke="#000000" points="616.624,-45.8518 612.5069,-36.0896 609.6376,-46.2885 616.624,-45.8518"/>
</g>
<!-- [root] provider.azurerm (close) -->
<g id="node13" class="node">
<title>[root] provider.azurerm (close)</title>
<ellipse fill="none" stroke="#000000" cx="119.3763" cy="-378" rx="119.2527" ry="18"/>
<text text-anchor="middle" x="119.3763" y="-373.8" font-family="Times,serif" font-size="14.00" fill="#000000">[root] provider.azurerm (close)</text>
</g>
<!-- [root] provider.azurerm (close)&#45;&gt;[root] azurerm_public_ip.myip -->
<g id="edge14" class="edge">
<title>[root] provider.azurerm (close)&#45;&gt;[root] azurerm_public_ip.myip</title>
<path fill="none" stroke="#000000" d="M113.8248,-359.8314C111.446,-352.0463 108.6125,-342.7729 105.973,-334.1347"/>
<polygon fill="#000000" stroke="#000000" points="109.2721,-332.954 103.0026,-324.4133 102.5776,-334.9996 109.2721,-332.954"/>
</g>
<!-- [root] provider.azurerm (close)&#45;&gt;[root] azurerm_subnet.mysubnet -->
<g id="edge15" class="edge">
<title>[root] provider.azurerm (close)&#45;&gt;[root] azurerm_subnet.mysubnet</title>
<path fill="none" stroke="#000000" d="M156.5027,-360.7542C177.3481,-351.0712 203.6001,-338.8767 226.0353,-328.4552"/>
<polygon fill="#000000" stroke="#000000" points="227.7951,-331.497 235.3899,-324.1098 224.8461,-325.1484 227.7951,-331.497"/>
</g>
<!-- [root] root -->
<g id="node17" class="node">
<title>[root] root</title>
<ellipse fill="none" stroke="#000000" cx="283.3763" cy="-450" rx="46.8976" ry="18"/>
<text text-anchor="middle" x="283.3763" y="-445.8" font-family="Times,serif" font-size="14.00" fill="#000000">[root] root</text>
</g>
<!-- [root] root&#45;&gt;[root] meta.count&#45;boundary (count boundary fixup) -->
<g id="edge20" class="edge">
<title>[root] root&#45;&gt;[root] meta.count&#45;boundary (count boundary fixup)</title>
<path fill="none" stroke="#000000" d="M314.4115,-436.4574C338.0439,-426.145 371.0571,-411.7393 398.3972,-399.8091"/>
<polygon fill="#000000" stroke="#000000" points="400.0408,-402.9106 407.8064,-395.7032 397.2412,-396.4948 400.0408,-402.9106"/>
</g>
<!-- [root] root&#45;&gt;[root] provider.azurerm (close) -->
<g id="edge21" class="edge">
<title>[root] root&#45;&gt;[root] provider.azurerm (close)</title>
<path fill="none" stroke="#000000" d="M252.5292,-436.4574C228.625,-425.9628 195.0646,-411.229 167.6176,-399.1791"/>
<polygon fill="#000000" stroke="#000000" points="168.7535,-395.8554 158.1901,-395.0402 165.9395,-402.2649 168.7535,-395.8554"/>
</g>
</g>
</svg>
